<svg width="15" height="18" viewBox="0 0 15 18" fill="none" xmlns="http://www.w3.org/2000/svg">
<g clip-path="url(#clip0_5_1388)">
<path d="M13.0693 6.01721C12.5519 6.01721 12.132 6.4299 12.132 6.9384V13.6336C12.132 15.0264 10.981 16.1576 9.56389 16.1576H5.43617C4.01902 16.1576 2.86806 15.0264 2.86806 13.6336V6.9384C2.86806 6.4299 2.44817 6.01721 1.9308 6.01721C1.41343 6.01721 0.99353 6.4299 0.99353 6.9384V13.6336C0.99353 16.0397 2.98803 18 5.43617 18H9.56389C12.012 18 14.0065 16.0397 14.0065 13.6336V6.9384C14.0065 6.4299 13.5866 6.01721 13.0693 6.01721Z" fill="#2D2D2D"/>
<path d="M6.65834 13.2909V6.9384C6.65834 6.4299 6.23845 6.01721 5.72108 6.01721C5.20371 6.01721 4.78381 6.4299 4.78381 6.9384V13.2909C4.78381 13.7994 5.20371 14.2121 5.72108 14.2121C6.23845 14.2121 6.65834 13.7994 6.65834 13.2909Z" fill="#2D2D2D"/>
<path d="M14.0627 3.05466H10.7523V2.35087C10.7523 1.05384 9.68008 0 8.36041 0H6.64709C5.32742 0 4.25519 1.05384 4.25519 2.35087V3.05466H0.937266C0.419895 3.05466 0 3.46735 0 3.97584C0 4.48434 0.419895 4.89703 0.937266 4.89703H14.0627C14.5801 4.89703 15 4.48434 15 3.97584C15 3.46735 14.5801 3.05466 14.0627 3.05466ZM6.12597 2.35087C6.12597 2.07083 6.35841 1.84237 6.64334 1.84237H8.35666C8.64159 1.84237 8.87403 2.07083 8.87403 2.35087V3.05466H6.12222V2.35087H6.12597Z" fill="#2D2D2D"/>
<path d="M10.1937 13.2909V6.9384C10.1937 6.4299 9.77385 6.01721 9.25648 6.01721C8.73911 6.01721 8.31921 6.4299 8.31921 6.9384V13.2909C8.31921 13.7994 8.73911 14.2121 9.25648 14.2121C9.77385 14.2121 10.1937 13.7994 10.1937 13.2909Z" fill="#2D2D2D"/>
</g>
<defs>
<clipPath id="clip0_5_1388">
<rect width="15" height="18" fill="white"/>
</clipPath>
</defs>
</svg>
