<?xml version="1.0" standalone="no"?>
<!DOCTYPE svg PUBLIC "-//W3C//DTD SVG 20010904//EN"
 "http://www.w3.org/TR/2001/REC-SVG-20010904/DTD/svg10.dtd">
<svg version="1.0" xmlns="http://www.w3.org/2000/svg"
 width="182.000000pt" height="182.000000pt" viewBox="0 0 182.000000 182.000000"
 preserveAspectRatio="xMidYMid meet">

<g transform="translate(0.000000,182.000000) scale(0.100000,-0.100000)"
fill="#000000" stroke="none">
<path d="M1224 1252 c-71 -70 -176 -168 -234 -218 -89 -76 -105 -95 -108 -123
-4 -39 20 -71 54 -71 13 0 44 19 71 41 126 109 194 170 270 243 l82 79 38 -63
c21 -34 53 -84 71 -111 17 -27 32 -53 32 -58 0 -5 -19 -13 -43 -19 -49 -13
-71 -34 -118 -112 -18 -30 -34 -56 -35 -58 -1 -2 -26 10 -55 26 -67 37 -106
46 -169 37 -58 -8 -77 -21 -85 -57 -5 -21 -1 -33 20 -54 23 -23 31 -25 72 -19
41 6 97 -6 113 -24 3 -3 26 -21 52 -39 80 -56 118 -41 166 65 9 21 28 56 41
77 l24 38 57 -5 c55 -5 106 -27 123 -54 4 -7 26 -13 47 -13 31 0 43 5 55 24
21 32 8 64 -61 140 -75 82 -200 272 -247 373 -32 70 -44 83 -77 83 -22 0 -54
-26 -156 -128z"/>
<path d="M200 1153 c-40 -15 -50 -35 -50 -102 0 -93 -44 -342 -75 -431 -15
-41 -29 -87 -32 -103 -7 -38 20 -77 55 -77 35 1 55 17 76 62 18 38 72 80 117
91 27 7 31 5 154 -93 72 -58 108 -52 144 22 35 74 78 117 126 129 49 12 60 22
70 60 8 33 -22 72 -56 71 -67 0 -114 -23 -177 -89 l-63 -65 -22 19 c-12 11
-44 34 -72 52 -46 30 -55 32 -104 27 l-53 -6 6 37 c3 21 10 70 15 108 16 121
27 144 57 116 5 -5 25 -14 44 -20 19 -5 67 -22 105 -36 39 -14 113 -39 165
-56 52 -17 105 -35 118 -40 35 -14 57 -11 77 11 24 26 22 70 -4 91 -11 9 -87
39 -168 65 -148 48 -268 93 -353 132 -56 26 -81 32 -100 25z"/>
</g>
</svg>
