<?xml version="1.0" standalone="no"?>
<!DOCTYPE svg PUBLIC "-//W3C//DTD SVG 20010904//EN"
 "http://www.w3.org/TR/2001/REC-SVG-20010904/DTD/svg10.dtd">
<svg version="1.0" xmlns="http://www.w3.org/2000/svg"
 width="150.000000pt" height="150.000000pt" viewBox="0 0 150.000000 150.000000"
 preserveAspectRatio="xMidYMid meet">

<g transform="translate(0.000000,150.000000) scale(0.100000,-0.100000)"
fill="#000000" stroke="none">
<path d="M600 1140 c-11 -11 -20 -26 -20 -34 0 -27 -42 -103 -105 -191 -35
-49 -79 -110 -96 -135 -76 -106 -146 -198 -181 -235 -98 -107 -168 -201 -168
-225 0 -50 46 -80 86 -57 12 7 41 36 65 66 24 29 63 76 87 105 23 28 83 105
133 171 89 117 109 139 109 115 0 -6 12 -37 26 -68 43 -94 94 -232 117 -317
19 -67 26 -81 48 -89 39 -13 68 -2 134 54 33 28 85 72 115 98 181 153 364 376
455 554 60 116 67 156 34 189 -24 24 -10 24 -254 -2 -126 -13 -492 -6 -509 11
-16 16 -54 12 -76 -10z m679 -162 c-35 -69 -112 -177 -191 -268 -90 -103 -297
-291 -318 -287 -8 1 -16 11 -18 22 -4 21 -46 128 -106 274 -20 46 -43 92 -52
102 -15 17 -14 22 22 76 22 32 44 70 51 85 l12 28 283 3 c156 1 295 3 311 5
l27 2 -21 -42z"/>
</g>
</svg>
