<?xml version="1.0" standalone="no"?>
<!DOCTYPE svg PUBLIC "-//W3C//DTD SVG 20010904//EN"
 "http://www.w3.org/TR/2001/REC-SVG-20010904/DTD/svg10.dtd">
<svg version="1.0" xmlns="http://www.w3.org/2000/svg"
 width="150.000000pt" height="150.000000pt" viewBox="0 0 150.000000 150.000000"
 preserveAspectRatio="xMidYMid meet">

<g transform="translate(0.000000,150.000000) scale(0.100000,-0.100000)"
fill="#000000" stroke="none">
<path d="M875 1301 c-40 -25 -639 -629 -655 -659 -24 -48 30 -112 82 -98 13 3
173 154 356 334 298 293 333 330 332 358 0 65 -62 99 -115 65z"/>
<path d="M843 667 c-291 -291 -333 -337 -333 -363 0 -39 36 -74 76 -74 25 0
76 46 367 338 226 227 337 344 337 358 0 39 -38 74 -78 74 -35 0 -53 -16 -369
-333z"/>
</g>
</svg>
