<?xml version="1.0" encoding="UTF-8"?>
<svg id="_레이어_1" data-name="레이어 1" xmlns="http://www.w3.org/2000/svg" viewBox="0 0 512 512">
  <defs>
    <style>
      .cls-1 {
        fill: #52deff;
        stroke-width: 0px;
      }
    </style>
  </defs>
  <path class="cls-1" d="m405.45,282.92H106.55c-14.86,0-26.9-12.03-26.9-26.9s12.04-26.9,26.9-26.9h298.9c14.86,0,26.9,12.03,26.9,26.9s-12.04,26.9-26.9,26.9Z"/>
  <path class="cls-1" d="m405.46,442.82c-2.52,0-5.08-.34-7.62-1.1l-298.9-88.16c-14.25-4.2-22.39-19.15-18.19-33.42,4.2-14.24,19.22-22.38,33.4-18.18l298.9,88.16c14.25,4.2,22.39,19.15,18.19,33.42-3.45,11.69-14.17,19.28-25.78,19.28Z"/>
  <path class="cls-1" d="m106.54,211.17c-11.61,0-22.33-7.59-25.78-19.28-4.2-14.26,3.94-29.21,18.19-33.42l298.9-88.16c14.23-4.28,29.21,3.94,33.4,18.18,4.2,14.26-3.94,29.21-18.19,33.42L114.16,210.07c-2.54.76-5.1,1.1-7.62,1.1Z"/>
</svg>