<?xml version="1.0" standalone="no"?>
<!DOCTYPE svg PUBLIC "-//W3C//DTD SVG 20010904//EN"
 "http://www.w3.org/TR/2001/REC-SVG-20010904/DTD/svg10.dtd">
<svg version="1.0" xmlns="http://www.w3.org/2000/svg"
 width="150.000000pt" height="150.000000pt" viewBox="0 0 150.000000 150.000000"
 preserveAspectRatio="xMidYMid meet">

<g transform="translate(0.000000,150.000000) scale(0.100000,-0.100000)"
fill="#000000" stroke="none">
<path d="M173 1219 c-51 -25 -109 -100 -130 -167 -19 -61 -22 -250 -4 -322 39
-159 79 -263 106 -274 29 -11 97 -6 230 18 72 13 131 22 133 21 5 -4 -80 -138
-110 -173 -47 -55 -29 -122 35 -122 32 0 87 61 129 145 17 33 55 97 86 143
l55 83 -16 35 -17 35 22 -15 c29 -21 77 -20 108 1 23 16 23 16 15 -3 -19 -47
-17 -66 14 -108 17 -24 58 -90 92 -147 73 -125 112 -169 151 -169 56 0 74 75
29 117 -10 10 -27 32 -37 49 -11 17 -32 52 -48 78 -16 26 -27 48 -25 50 2 2
63 -7 134 -20 161 -29 217 -30 237 -6 19 22 52 104 66 162 6 25 16 68 23 95
17 64 16 234 -1 303 -7 29 -30 79 -51 111 -49 74 -114 107 -192 98 -41 -5
-169 -60 -232 -100 -60 -37 -156 -121 -167 -144 -11 -24 -20 -28 -61 -31 -45
-3 -48 -1 -68 33 -27 46 -149 134 -264 191 -112 56 -179 65 -242 33z"/>
</g>
</svg>
