<?xml version="1.0" encoding="UTF-8"?>
<svg id="_레이어_1" data-name="레이어 1" xmlns="http://www.w3.org/2000/svg" viewBox="0 0 512 512">
  <defs>
    <style>
      .cls-1 {
        fill: #5c6cff;
        stroke-width: 0px;
      }
    </style>
  </defs>
  <path class="cls-1" d="m337.2,325.38c-6.71,0-13.03-3.34-16.79-8.98-6.7-10.06-25.78-9.72-30.62-7.28-8.1,7.7-20.04,6.75-27.7-1.31-7.7-8.06-6.57-21.46,1.48-29.16,10.89-10.38,30.05-12.4,44.25-10.8,11.32,1.26,21.49,4.78,29.95,10.25,18.17-12.14,45.96-23.64,72.56-29.87-21.66-24.46-38.91-54.01-50.16-76.02-26.95,34.1-55.01,59.92-85.15,78.44-9.48,5.81-21.92,2.89-27.75-6.62-5.83-9.48-2.86-21.91,6.63-27.74,32.98-20.28,63.6-51.3,93.59-94.89,4.22-6.09,11.34-9.4,18.84-8.59,7.38.81,13.71,5.62,16.5,12.5,10.65,26.43,47.32,99.9,88.56,122.31,9.18,5.02,13.03,16.18,8.87,25.77s-15.01,14.42-24.9,11.09c-22.24-7.43-88.44,18.63-100.67,30.81-3.24,5.65-9.06,9.4-15.64,10.01-.62.05-1.22.08-1.83.08Zm18.53-12.19s-.01,0-.01.03c0-.03.01-.03.01-.03Z"/>
  <path class="cls-1" d="m50.27,362.35c-5.19,0-10.36-2-14.29-5.94-7.53-7.57-7.88-19.65-.8-27.61,28.35-31.92,33.98-107.44,33.76-133.87-.07-8.51,5.2-16.16,13.19-19.1,7.99-2.92,16.96-.58,22.43,5.94,32.14,38.25,100.48,41.43,101.18,41.45,11.11.45,19.79,9.8,19.36,20.91-.41,11.11-9.56,20.28-20.87,19.39-2.75-.08-54.02-2.31-97.22-27.98-1.89,18.02-5.36,39.9-11.66,61.16,7.67-1.6,15.71-2.26,23.94-1.47,9.76.95,18.93,3.89,27.28,8.72,11.1-13.13,29.82-24.61,58.98-22.75,11.14.47,19.78,9.88,19.31,21.02-.49,11.11-9.93,20.46-21.02,19.28-25.89-.39-30.21,13.37-31.02,17.84-1.43,7.85-7.41,14.37-15.17,16.23-7.71,1.81-15.95-.79-20.78-7.09-6.19-8.09-12.95-12.24-21.32-13.06-19.82-1.84-44.23,15.16-51.91,21.88-3.82,3.36-8.59,5.04-13.36,5.04Z"/>
</svg>