<?xml version="1.0" encoding="UTF-8"?>
<svg id="_레이어_1" data-name="레이어 1" xmlns="http://www.w3.org/2000/svg" viewBox="0 0 512 512">
  <defs>
    <style>
      .cls-1 {
        fill: #72e244;
        stroke-width: 0px;
      }
    </style>
  </defs>
  <path class="cls-1" d="m421.65,287.2c-10.3,0-20.6-3.91-28.46-11.74-1.68-1.65-89.13-85.51-249.22-104.89-22.13-2.68-37.89-22.78-35.21-44.92,2.69-22.12,22.74-37.78,44.91-35.2,190.01,23.01,292.3,123.65,296.56,127.91,15.74,15.79,15.71,41.32-.08,57.08-7.87,7.85-18.18,11.77-28.49,11.77Z"/>
  <path class="cls-1" d="m363.19,421.83c-10.3,0-20.6-3.91-28.46-11.74-1.65-1.63-89.13-85.51-249.23-104.92-22.12-2.68-37.88-22.8-35.2-44.92,2.68-22.12,22.85-37.62,44.92-35.2,189.98,23.04,292.28,123.68,296.55,127.93,15.74,15.79,15.71,41.32-.07,57.06-7.88,7.88-18.19,11.8-28.5,11.8Z"/>
</svg>