<?xml version="1.0" encoding="UTF-8"?>
<svg id="_레이어_1" data-name="레이어 1" xmlns="http://www.w3.org/2000/svg" viewBox="0 0 512 512">
  <defs>
    <style>
      .cls-1 {
        fill: #ff5076;
        stroke-width: 0px;
      }
    </style>
  </defs>
  <path class="cls-1" d="m277.92,212.79s-74.29-115.82-196.09-115.82c0,0-46.33,30.9-30.76,145.71,9.09,67,36.48,79.95,36.48,79.95,0,0,113.08,25.41,183.82-69.24,45.56-60.96,6.55-40.6,6.55-40.6Z"/>
  <path class="cls-1" d="m234.08,212.79s74.29-115.82,196.09-115.82c0,0,46.33,30.9,30.76,145.71-9.09,67-36.48,79.95-36.48,79.95,0,0-113.08,25.41-183.82-69.24-45.56-60.96-6.55-40.6-6.55-40.6Z"/>
  <path class="cls-1" d="m356.8,407.49c-5.04,0-10.13-1.42-14.67-4.36-73.73-48.1-108.86-133.29-110.32-136.92-5.57-13.74,1.05-29.4,14.79-34.99,13.71-5.6,29.41,1,35.06,14.76.3.74,30.54,73.4,89.87,112.07,12.44,8.12,15.95,24.8,7.83,37.22-5.15,7.91-13.77,12.22-22.55,12.22Z"/>
  <path class="cls-1" d="m176.4,415.03c-2.22,0-4.47-.29-6.71-.87-14.32-3.7-22.99-18.18-19.37-32.52.7-2.78,18.01-68.91,91.31-136.37,10.95-10.09,27.95-9.35,38.01,1.6,10.06,10.93,9.35,27.95-1.58,38.01-60.71,55.82-75.47,109.52-75.62,110.04-3.2,12.06-14.12,20.1-26.05,20.1Z"/>
</svg>