<?xml version="1.0" encoding="UTF-8"?>
<svg id="_레이어_1" data-name="레이어 1" xmlns="http://www.w3.org/2000/svg" viewBox="0 0 512 512">
  <defs>
    <style>
      .cls-1 {
        fill: #fcc054;
        stroke-width: 0px;
      }
    </style>
  </defs>
  <path class="cls-1" d="m406.12,199.67c12.39,0,22.4-11.39,19.65-23.46-15.91-69.9-104.71-77.31-169.77-77.31h0s0,0,0,0c-65.06,0-153.86,7.4-169.77,77.31-2.75,12.08,7.26,23.46,19.65,23.46h300.24Z"/>
  <path class="cls-1" d="m100.59,320.4c-8.25,0-14.62,7.34-13.17,15.46,4.71,26.37,22.87,77.24,92.99,77.24h151.17c70.12,0,88.29-50.86,93-77.24,1.45-8.12-4.92-15.46-13.17-15.46H100.59Z"/>
  <path class="cls-1" d="m413.14,235.13H98.87c-13.75,0-17.21,11.14-17.21,24.91s3.46,24.91,17.21,24.91h314.27c13.75,0,17.21-11.14,17.21-24.91s-3.45-24.91-17.21-24.91Z"/>
</svg>