<?xml version="1.0" encoding="UTF-8"?>
<svg id="_레이어_1" data-name="레이어 1" xmlns="http://www.w3.org/2000/svg" viewBox="0 0 512 512">
  <defs>
    <style>
      .cls-1 {
        fill: #9476ff;
        stroke-width: 0px;
      }
    </style>
  </defs>
  <path class="cls-1" d="m450.57,135.6c-5.9-5.96-14.26-8.7-22.57-7.7-1.17.13-118.17,15.16-198.59-7.54-1.25-.34-2.48-.11-3.73-.26-1.84-.25-3.62-.51-5.43-.38-1.63.12-3.1.54-4.66.94-1.81.46-3.54.9-5.21,1.72-1.44.7-2.66,1.66-3.95,2.61-1.46,1.08-2.87,2.1-4.1,3.47-1.18,1.29-2.02,2.81-2.93,4.34-.66,1.1-1.62,1.92-2.12,3.15-47.75,114.93-146.23,201.38-147.22,202.25-11.22,9.72-12.41,26.72-2.68,37.93,5.32,6.12,12.81,9.27,20.33,9.27,6.24,0,12.5-2.15,17.59-6.57,4.18-3.62,97.45-85.36,152.25-201.23,56.45,11.42,120.14,9.88,159.58,7.2-21.4,66.94-74.13,117.69-103.8,142.07-13.52-22.41-23-45.95-28.29-70.27-3.14-14.5-17.48-23.77-32.01-20.57-14.51,3.18-23.72,17.5-20.56,32.02,8.73,40.14,26.56,78.34,52.95,113.51,5.27,7.01,13.33,10.74,21.53,10.74,5.06,0,10.17-1.42,14.68-4.36,5.62-3.68,137.69-91.31,156.53-229.75,1.13-8.3-1.67-16.65-7.59-22.59Z"/>
</svg>