<?xml version="1.0" standalone="no"?>
<!DOCTYPE svg PUBLIC "-//W3C//DTD SVG 20010904//EN"
 "http://www.w3.org/TR/2001/REC-SVG-20010904/DTD/svg10.dtd">
<svg version="1.0" xmlns="http://www.w3.org/2000/svg"
 width="138.000000pt" height="138.000000pt" viewBox="0 0 138.000000 138.000000"
 preserveAspectRatio="xMidYMid meet">

<g transform="translate(0.000000,138.000000) scale(0.100000,-0.100000)"
fill="#000000" stroke="none">
<path d="M515 1153 c-115 -24 -186 -52 -257 -99 -66 -44 -150 -134 -163 -174
-8 -25 10 -59 38 -69 12 -5 263 -8 557 -8 567 0 580 1 595 46 20 65 -153 225
-295 271 -152 51 -335 63 -475 33z"/>
<path d="M95 690 c-23 -25 -13 -63 20 -78 37 -17 1113 -17 1150 0 33 15 43 53
20 78 -18 19 -35 20 -595 20 -560 0 -577 -1 -595 -20z"/>
<path d="M102 524 c-8 -5 -16 -31 -19 -56 -8 -67 42 -158 112 -204 96 -64 161
-74 495 -74 323 0 392 10 477 63 103 65 163 198 115 256 -17 22 -17 22 -591
24 -392 1 -579 -1 -589 -9z"/>
</g>
</svg>
