<?xml version="1.0" encoding="UTF-8"?>
<svg id="_레이어_1" data-name="레이어 1" xmlns="http://www.w3.org/2000/svg" viewBox="0 0 512 512">
  <defs>
    <style>
      .cls-1 {
        fill: #00c152;
        stroke-width: 0px;
      }
    </style>
  </defs>
  <path class="cls-1" d="m134.23,210.43s-56.37-18.7-77.65,62.12c-7.42,28.2-18.31,78.95,34.82,92.65,53.12,13.71,70.82-36.78,76-62.95,4.53-22.96,15.99-77.7-33.16-91.82Z"/>
  <path class="cls-1" d="m411.05,227.27c5.16-20.38,9.54-54.74-6.75-88.4-17.03-35.15-51.69-59.76-103.03-73.16-47.06-12.32-86.64-7.71-117.56,13.67-49.88,34.49-57.32,99.7-57.61,102.44-.9,8.46,5.23,16.02,13.67,16.93,8.28,1.02,16.05-5.15,16.99-13.64.06-.54,6.42-54.19,44.64-80.48,23.21-15.9,54.19-18.95,92.06-9.1,42.09,10.99,70,30.03,82.95,56.57,11.66,23.88,8.97,49.52,5.29,65.46-23.23-2.81-66.65.82-92.33,58.79-35.18,79.42-24.48,153.23,27.45,170.9,51.93,17.68,93.56-4.52,120.55-77.23,7.66-20.63,25.81-111.43-26.33-142.75Zm16.12,113.76l-40.23,44.01c-6.08,7.13-18.61,2.45-18.7-6.77l-.05-1.32-.85-19.73-32.16,30.39c-9.43,9.56-26.82,1.54-26.01-11.63l2.27-83.62c.65-20.14,31.28-19.35,30.84.84l-1.26,46.47,29.64-28.01c9.31-10.87,28.13-2.13,26.01,11.81,0,0-1.48,12.21-3.04,25.02l20.89-19.88c7.91-7.82,20.31,4.36,12.67,12.42Z"/>
</svg>