<?xml version="1.0" standalone="no"?>
<!DOCTYPE svg PUBLIC "-//W3C//DTD SVG 20010904//EN"
 "http://www.w3.org/TR/2001/REC-SVG-20010904/DTD/svg10.dtd">
<svg version="1.0" xmlns="http://www.w3.org/2000/svg"
 width="150.000000pt" height="150.000000pt" viewBox="0 0 150.000000 150.000000"
 preserveAspectRatio="xMidYMid meet">

<g transform="translate(0.000000,150.000000) scale(0.100000,-0.100000)"
fill="#000000" stroke="none">
<path d="M257 1342 c-22 -24 -22 -65 1 -84 9 -9 62 -28 117 -43 55 -14 125
-35 155 -45 30 -10 87 -28 125 -40 39 -12 84 -28 100 -35 74 -31 265 -95 315
-105 30 -6 77 -18 103 -27 26 -8 54 -12 62 -9 25 9 48 54 41 81 -8 32 -48 52
-149 75 -45 10 -131 36 -192 58 -296 107 -432 152 -461 152 -11 0 -24 4 -30 9
-13 12 -97 31 -137 31 -20 0 -41 -7 -50 -18z"/>
<path d="M217 822 c-22 -24 -21 -65 1 -85 17 -15 70 -17 550 -17 583 0 562 -2
562 60 0 62 21 60 -564 60 -504 0 -534 -1 -549 -18z"/>
<path d="M1056 551 c-3 -5 -18 -12 -33 -16 -15 -3 -45 -15 -68 -25 -22 -10
-109 -41 -194 -70 -85 -29 -168 -61 -185 -70 -35 -20 -87 -39 -194 -70 -72
-22 -102 -45 -102 -82 0 -26 36 -58 66 -58 38 0 185 47 299 95 55 23 150 59
210 80 130 44 168 60 298 126 54 27 106 49 117 49 28 0 36 21 15 37 -22 15
-220 19 -229 4z"/>
</g>
</svg>
