<svg width="26" height="26" viewBox="0 0 26 26" fill="none" xmlns="http://www.w3.org/2000/svg">
<g clip-path="url(#clip0_4_299)">
<path d="M13.0029 26C5.82991 26 0 20.1701 0 13.0029C0 5.83578 5.82991 0 13.0029 0C20.176 0 26.0059 5.82991 26.0059 13.0029C26.0059 20.176 20.176 26.0059 13.0029 26.0059V26ZM13.0029 1.75953C6.80352 1.75953 1.75953 6.80352 1.75953 13.0029C1.75953 19.2023 6.80352 24.2463 13.0029 24.2463C19.2023 24.2463 24.2463 19.2023 24.2463 13.0029C24.2463 6.80352 19.2023 1.75953 13.0029 1.75953Z" fill="white"/>
<path d="M6.3108 14.7625C5.84746 14.7625 5.39584 14.5748 5.0674 14.2463C4.98529 14.1642 4.90904 14.0763 4.84452 13.9765C4.78587 13.8827 4.72722 13.783 4.68617 13.6774C4.63925 13.5719 4.60992 13.4604 4.58646 13.349C4.563 13.2317 4.55127 13.1202 4.55127 13.0029C4.55127 12.8856 4.563 12.7742 4.58646 12.6569C4.60992 12.5455 4.63925 12.434 4.68617 12.3285C4.72722 12.2229 4.78587 12.1232 4.84452 12.0235C4.90904 11.9296 4.98529 11.8416 5.0674 11.7595C5.14364 11.6774 5.23749 11.6012 5.33133 11.5367C5.43103 11.478 5.53074 11.4194 5.63631 11.3783C5.74188 11.3314 5.85332 11.3021 5.96476 11.2786C6.1935 11.2317 6.4281 11.2317 6.65098 11.2786C6.76241 11.3021 6.87385 11.3314 6.98529 11.3783C7.09086 11.4194 7.19057 11.478 7.28441 11.5367C7.38411 11.6012 7.47209 11.6774 7.5542 11.7595C7.63631 11.8416 7.70669 11.9296 7.77121 12.0235C7.83573 12.1232 7.88851 12.2229 7.93543 12.3285C7.97649 12.434 8.01168 12.5455 8.03514 12.6569C8.0586 12.7742 8.07033 12.8856 8.07033 13.0029C8.07033 13.1202 8.0586 13.2317 8.03514 13.349C8.01168 13.4604 7.97649 13.5719 7.93543 13.6774C7.88851 13.783 7.83573 13.8827 7.77121 13.9765C7.70669 14.0763 7.63631 14.1642 7.5542 14.2463C7.22576 14.5748 6.77414 14.7625 6.3108 14.7625Z" fill="white"/>
<path d="M11.2374 13.0029C11.2374 12.0293 12.0292 11.2434 12.997 11.2434C13.9706 11.2434 14.7565 12.0293 14.7565 13.0029C14.7565 13.9765 13.9706 14.7625 12.997 14.7625C12.0292 14.7625 11.2374 13.9765 11.2374 13.0029Z" fill="white"/>
<path d="M19.6891 14.7625C19.2258 14.7625 18.7741 14.5748 18.4457 14.2463C18.3636 14.1642 18.2932 14.0763 18.2287 13.9765C18.1642 13.8827 18.1114 13.783 18.0645 13.6774C18.0234 13.5719 17.9882 13.4604 17.9648 13.349C17.9413 13.2317 17.9296 13.1144 17.9296 13.0029C17.9296 12.8856 17.9413 12.7742 17.9648 12.6569C17.9882 12.5455 18.0234 12.434 18.0645 12.3285C18.1114 12.2229 18.1642 12.1232 18.2287 12.0235C18.2932 11.9296 18.3636 11.8416 18.4457 11.7595C18.5278 11.6774 18.6158 11.6012 18.7155 11.5367C18.8093 11.478 18.909 11.4194 19.0146 11.3783C19.126 11.3314 19.2316 11.3021 19.3489 11.2786C19.5718 11.2317 19.8064 11.2317 20.0351 11.2786C20.1466 11.3021 20.258 11.3314 20.3636 11.3783C20.4692 11.4194 20.5689 11.478 20.6686 11.5367C20.7624 11.6012 20.8504 11.6774 20.9325 11.7595C21.0146 11.8416 21.0909 11.9296 21.1554 12.0235C21.214 12.1232 21.2727 12.2229 21.3137 12.3285C21.3607 12.434 21.39 12.5455 21.4134 12.6569C21.4369 12.7742 21.4486 12.8856 21.4486 13.0029C21.4486 13.1202 21.4369 13.2317 21.4134 13.349C21.39 13.4604 21.3607 13.5719 21.3137 13.6774C21.2727 13.783 21.214 13.8827 21.1554 13.9765C21.0909 14.0763 21.0146 14.1642 20.9325 14.2463C20.6041 14.5748 20.1524 14.7625 19.6891 14.7625Z" fill="white"/>
</g>
<defs>
<clipPath id="clip0_4_299">
<rect width="26" height="26" fill="white"/>
</clipPath>
</defs>
</svg>
