<svg width="28" height="26" viewBox="0 0 28 26" fill="none" xmlns="http://www.w3.org/2000/svg">
<path d="M25.0525 9.15795C22.5632 9.15795 21.5455 7.39757 22.7833 5.23836C23.4984 3.98684 23.0721 2.3915 21.8206 1.67635L19.4413 0.314807C18.3548 -0.331582 16.952 0.0535009 16.3056 1.13998L16.1543 1.40129C14.9166 3.5605 12.8811 3.5605 11.6296 1.40129L11.4783 1.13998C10.8595 0.0535009 9.45666 -0.331582 8.37018 0.314807L5.99092 1.67635C4.7394 2.3915 4.31306 4.0006 5.02821 5.25211C6.27973 7.39757 5.26201 9.15795 2.77273 9.15795C1.34242 9.15795 0.159668 10.3269 0.159668 11.771V14.1915C0.159668 15.6218 1.32867 16.8046 2.77273 16.8046C5.26201 16.8046 6.27973 18.565 5.02821 20.7242C4.31306 21.9757 4.7394 23.571 5.99092 24.2862L8.37018 25.6477C9.45666 26.2941 10.8595 25.909 11.5058 24.8226L11.6571 24.5612C12.8949 22.402 14.9303 22.402 16.1818 24.5612L16.3331 24.8226C16.9795 25.909 18.3823 26.2941 19.4688 25.6477L21.8481 24.2862C23.0996 23.571 23.5259 21.9619 22.8108 20.7242C21.5592 18.565 22.577 16.8046 25.0663 16.8046C26.4966 16.8046 27.6793 15.6356 27.6793 14.1915V11.771C27.6656 10.3407 26.4966 9.15795 25.0525 9.15795ZM13.9126 17.451C11.4508 17.451 9.44291 15.443 9.44291 12.9813C9.44291 10.5195 11.4508 8.51156 13.9126 8.51156C16.3744 8.51156 18.3823 10.5195 18.3823 12.9813C18.3823 15.443 16.3744 17.451 13.9126 17.451Z" fill="white"/>
</svg>
