<svg width="31" height="26" viewBox="0 0 31 26" fill="none" xmlns="http://www.w3.org/2000/svg">
<g clip-path="url(#clip0_4_297)">
<path d="M30.9957 12.9909C30.9696 11.7415 30.7089 10.4556 30.3397 9.37952C29.7706 7.71975 28.8236 6.22413 27.6463 4.97019C24.4968 1.60049 19.9093 0 15.4739 0C6.9333 0 0 5.80463 0 12.9909C0 17.0582 2.30675 20.6286 5.42587 22.8674C7.27648 24.1943 9.39644 25.0926 11.5859 25.5668C13.8449 26.0593 16.0821 26.1231 18.3585 25.7766C19.0362 25.6717 19.7225 25.4802 20.2742 25.0516C21.117 24.3995 21.1605 23.4967 21.2169 22.4935C21.2647 21.6682 21.369 20.8383 21.6079 20.0495C22.1075 18.4079 23.2326 17.2178 24.9051 16.9989C26.0607 16.8485 27.2336 17.0263 28.3935 16.9761C28.9235 16.9534 29.4752 16.8758 29.9096 16.5566C30.9088 15.8134 31.013 14.1491 30.987 12.9909H30.9957ZM4.76121 15.4395C3.20165 15.4395 1.9375 14.1126 1.9375 12.4756C1.9375 10.8387 3.20165 9.51175 4.76121 9.51175C6.32077 9.51175 7.58492 10.8387 7.58492 12.4756C7.58492 14.1126 6.32077 15.4395 4.76121 15.4395ZM8.8708 8.8369C7.54582 8.8369 6.47716 7.71063 6.47716 6.32445C6.47716 4.93827 7.55017 3.812 8.8708 3.812C10.1914 3.812 11.2644 4.93827 11.2644 6.32445C11.2644 7.71063 10.1914 8.8369 8.8708 8.8369ZM15.4652 5.92774C14.3792 5.92774 13.4973 5.0021 13.4973 3.86215C13.4973 2.7222 14.3792 1.79656 15.4652 1.79656C16.5513 1.79656 17.4332 2.7222 17.4332 3.86215C17.4332 5.0021 16.5513 5.92774 15.4652 5.92774ZM21.4689 6.06454C20.6174 6.06454 19.9311 5.33953 19.9311 4.45037C19.9311 3.56121 20.6218 2.8362 21.4689 2.8362C22.316 2.8362 23.0067 3.56121 23.0067 4.45037C23.0067 5.33953 22.316 6.06454 21.4689 6.06454Z" fill="white"/>
</g>
<defs>
<clipPath id="clip0_4_297">
<rect width="31" height="26" fill="white"/>
</clipPath>
</defs>
</svg>
